<?xml version="1.0" encoding="utf-8"?>
<!-- Generator: Adobe Illustrator 25.2.3, SVG Export Plug-In . SVG Version: 6.00 Build 0)  -->
<svg version="1.1" id="レイヤー_1" xmlns="http://www.w3.org/2000/svg" xmlns:xlink="http://www.w3.org/1999/xlink" x="0px"
	 y="0px" viewBox="0 0 800 800" style="enable-background:new 0 0 800 800;" xml:space="preserve">
<style type="text/css">
	.st0{opacity:0.15;fill:#231815;}
	.st1{fill:#FFFFFF;}
	.st2{fill:#009AC7;}
	.st3{fill:none;}
</style>
<g>
	<path class="st0" d="M560.5,697.8L374,347.8c-1.3-2.5-4.4-3.9-7-3.2c-2.7,0.7-273.1,72.9-294.2,78.2c-9.1,2.3-15.8,7.2-18.9,13.9
		c-2.7,5.7-2.6,12.4,0.3,19.4l88.6,297.6c2.3,8.8,8.3,16.8,15.8,21.3c3.4,2.1,7.1,3.3,10.8,3.8c3.1,0.4,6.3,0.2,9.3-0.5
		c21-5.3,375-72.8,378.6-73.5c1.5-0.3,2.8-1.2,3.3-2.6S561.3,699.3,560.5,697.8z"/>
	<g>
		<g>
			<path class="st1" d="M61.1,395.4c3.3,13,15.4,22.5,28,17.3C110,404.2,376.8,291,376.8,291l182.3,342.1
				c0,0-349.5,119.6-370.5,128.2c-12.6,5.2-24.7-4.3-28-17.3"/>
			<path class="st2" d="M181.6,768.2c-3.6,0-7.2-0.9-10.6-2.6c-7.4-3.7-13.2-11.3-15.5-20.3c-0.7-2.9,1-5.8,3.9-6.6
				c2.9-0.7,5.8,1,6.6,3.9c1.5,6,5.2,10.9,9.9,13.3c3.5,1.8,7.1,1.9,10.8,0.4c19.6-8,316.9-109.9,364.8-126.3l-177-332.1
				c-35.3,15-264,111.9-283.2,119.8c-6.5,2.7-13.5,2.4-19.8-0.7c-7.4-3.7-13.2-11.3-15.5-20.3c-0.7-2.9,1-5.8,3.9-6.6
				c2.9-0.7,5.8,1,6.6,3.9c1.5,6,5.2,10.9,9.9,13.3c3.5,1.8,7.1,1.9,10.8,0.4c20.7-8.5,285-120.5,287.6-121.7c2.6-1.1,5.6,0,6.9,2.4
				l182.3,342.1c0.7,1.4,0.8,3,0.3,4.5c-0.6,1.5-1.8,2.6-3.3,3.1c-3.5,1.2-349.6,119.7-370.2,128.1
				C187.8,767.6,184.7,768.2,181.6,768.2z"/>
		</g>
		<g>
			<line class="st1" x1="502.7" y1="600.9" x2="194.9" y2="710.2"/>
			<path class="st2" d="M194.9,715.6c-2.2,0-4.3-1.4-5.1-3.6c-1-2.8,0.5-5.9,3.3-6.9l307.8-109.4c2.8-1,5.9,0.5,6.9,3.3
				c1,2.8-0.5,5.9-3.3,6.9L196.7,715.3C196.2,715.5,195.5,715.6,194.9,715.6z"/>
		</g>
		<g>
			<line class="st1" x1="496.5" y1="619.6" x2="188.7" y2="728.9"/>
			<path class="st2" d="M188.7,734.3c-2.2,0-4.3-1.4-5.1-3.6c-1-2.8,0.5-5.9,3.3-6.9l307.8-109.4c2.8-1,5.9,0.5,6.9,3.3
				c1,2.8-0.5,5.9-3.3,6.9L190.5,734C189.9,734.2,189.3,734.3,188.7,734.3z"/>
		</g>
		<g>
			<line class="st1" x1="490.2" y1="638.3" x2="182.5" y2="747.6"/>
			<path class="st2" d="M182.5,753c-2.2,0-4.3-1.4-5.1-3.6c-1-2.8,0.5-5.9,3.3-6.9l307.8-109.4c2.8-1,5.9,0.5,6.9,3.3
				c1,2.8-0.5,5.9-3.3,6.9L184.3,752.7C183.7,752.9,183.1,753,182.5,753z"/>
		</g>
		<g>
			<g>
				
					<rect x="293.5" y="104" transform="matrix(0.664 -0.7477 0.7477 0.664 -6.6858 317.33)" class="st1" width="112.4" height="124.1"/>
				<path class="st2" d="M358.8,254.7c-1.3,0-2.6-0.5-3.6-1.4L262.4,171c-1.1-1-1.7-2.3-1.8-3.7c-0.1-1.4,0.4-2.8,1.4-3.9l74.7-84.1
					c2-2.2,5.4-2.4,7.6-0.5l92.8,82.4c1.1,1,1.7,2.3,1.8,3.7c0.1,1.4-0.4,2.8-1.4,3.9l-74.7,84.1c-1,1.1-2.3,1.7-3.7,1.8
					C359,254.7,358.9,254.7,358.8,254.7z M273.6,166.5l84.7,75.2l67.5-76l-84.7-75.2L273.6,166.5z"/>
			</g>
			<g>
				
					<rect x="258.5" y="119.8" transform="matrix(0.664 -0.7477 0.7477 0.664 4.8108 280.6676)" class="st1" width="112.4" height="30.4"/>
				<path class="st2" d="M288.7,192.5c-1.3,0-2.6-0.4-3.6-1.4L262.4,171c-1.1-1-1.7-2.3-1.8-3.7c-0.1-1.4,0.4-2.8,1.4-3.9l74.7-84.1
					c2-2.2,5.4-2.4,7.6-0.5L367,99c1.1,1,1.7,2.3,1.8,3.7c0.1,1.4-0.4,2.8-1.4,3.9l-74.7,84.1C291.7,191.9,290.2,192.5,288.7,192.5z
					 M273.6,166.5l14.6,13l67.5-76l-14.6-13L273.6,166.5z"/>
			</g>
			<g>
				
					<rect x="318.2" y="47.7" transform="matrix(0.664 -0.7477 0.7477 0.664 43.7496 316.8425)" class="st1" width="112.4" height="124.1"/>
				<path class="st2" d="M383.5,198.4c-1.3,0-2.6-0.4-3.6-1.4l-92.8-82.4c-1.1-1-1.7-2.3-1.8-3.7c-0.1-1.4,0.4-2.8,1.4-3.9
					l74.7-84.1c2-2.2,5.4-2.4,7.6-0.5l92.8,82.4c1.1,1,1.7,2.3,1.8,3.7c0.1,1.4-0.4,2.8-1.4,3.9l-74.7,84.1
					C386.5,197.8,385,198.4,383.5,198.4z M298.3,110.1l84.7,75.2l67.5-76l-84.7-75.2L298.3,110.1z"/>
			</g>
			<g>
				
					<rect x="283.6" y="63.8" transform="matrix(0.664 -0.7477 0.7477 0.664 55.0941 280.6654)" class="st1" width="112.4" height="30.4"/>
				<path class="st2" d="M313.9,136.5c-1.3,0-2.6-0.4-3.6-1.4L287.6,115c-1.1-1-1.7-2.3-1.8-3.7c-0.1-1.4,0.4-2.8,1.4-3.9l74.7-84.1
					c1-1.1,2.3-1.7,3.7-1.8c1.4-0.1,2.8,0.4,3.9,1.4L392.1,43c2.2,2,2.4,5.4,0.5,7.6l-74.7,84.1
					C316.8,135.9,315.4,136.5,313.9,136.5z M298.8,110.5l14.6,13l67.5-76l-14.6-13L298.8,110.5z"/>
			</g>
			<g>
				<line class="st1" x1="315.4" y1="106.6" x2="354.6" y2="62.4"/>
				<path class="st2" d="M315.4,112c-1.3,0-2.6-0.4-3.6-1.4c-2.2-2-2.4-5.4-0.5-7.6l39.3-44.2c2-2.2,5.4-2.4,7.6-0.5
					c2.2,2,2.4,5.4,0.5,7.6l-39.3,44.2C318.3,111.4,316.8,112,315.4,112z"/>
			</g>
			<g>
				<g>
					<path class="st1" d="M471.8,105.2l0,0.4c0.3,4.8-3.4,9-8.2,9.3l-65.7,3.9c-4.8,0.3-5.9-17.7-1.1-18l65.7-3.9
						C467.4,96.7,471.5,100.4,471.8,105.2z"/>
					<path class="st2" d="M397.8,124.3c-5.3,0-8.9-5.3-9.4-13.9c-0.5-8.9,2.6-14.6,8.2-14.9l65.7-3.9c7.8-0.5,14.5,5.5,15,13.3
						c0,0,0,0,0,0l0,0.4c0.2,3.8-1,7.4-3.6,10.2c-2.5,2.8-6,4.5-9.8,4.7l-65.7,3.9C398.1,124.3,397.9,124.3,397.8,124.3z
						 M399.3,106.2c-0.3,2-0.1,5.3,0.4,7.2l63.6-3.8c0.9-0.1,1.7-0.5,2.3-1.1s0.9-1.5,0.9-2.4l0-0.4c-0.1-1.8-1.7-3.3-3.6-3.2
						L399.3,106.2z"/>
				</g>
				<g>
					<circle class="st1" cx="399.8" cy="109.7" r="24.8"/>
					<path class="st2" d="M399.8,140c-15.9,0-29.2-12.4-30.2-28.4c-1-16.6,11.7-31,28.4-32c8.1-0.5,15.8,2.2,21.9,7.6
						c6,5.4,9.6,12.8,10.1,20.8c1,16.6-11.7,31-28.4,32C401,140,400.4,140,399.8,140z M398.7,90.3c-10.7,0.6-18.9,9.9-18.2,20.5
						c0.6,10.7,9.8,18.9,20.5,18.2c10.7-0.6,18.9-9.9,18.2-20.5c-0.3-5.2-2.6-9.9-6.5-13.4S403.8,90,398.7,90.3L398.7,90.3z
						 M398.3,85L398.3,85L398.3,85z"/>
				</g>
			</g>
		</g>
		<g>
			<g>
				
					<ellipse transform="matrix(0.2545 -0.9671 0.9671 0.2545 -299.251 762.3718)" class="st1" cx="344.9" cy="575.3" rx="11.5" ry="48"/>
				<path class="st2" d="M377.8,597.2c-0.9,0-1.7,0-2.3,0c-9.7-0.2-22.1-2.2-34.9-5.6c-8.6-2.3-51.4-14.4-47.3-29.9
					c2.3-8.7,16.4-8.4,21-8.3c9.7,0.2,22.1,2.2,34.9,5.6c12.8,3.4,24.6,7.8,33.1,12.3c4.1,2.2,16.5,8.8,14.2,17.5v0
					C394.5,596.4,383.7,597.2,377.8,597.2z M305,564.8c4.1,3.7,16.9,10.7,38.3,16.4c21.4,5.6,36,5.9,41.4,4.6
					c-4.1-3.7-16.9-10.7-38.3-16.4C325,563.8,310.4,563.6,305,564.8z"/>
			</g>
			<g>
				<path class="st1" d="M391.3,587.5c-1.6,6.1-23.7,5.6-49.3-1.1c-25.6-6.7-45.1-17.2-43.5-23.3l-21.7,82.5
					c-1.6,6.1,17.9,16.6,43.5,23.3c25.6,6.7,47.7,7.3,49.3,1.1L391.3,587.5z"/>
				<path class="st2" d="M356.1,679.7c-0.9,0-1.7,0-2.3,0c-9.7-0.2-22.1-2.2-34.9-5.6c-8.6-2.3-51.4-14.4-47.3-29.9l21.7-82.5
					c0.8-2.9,3.7-4.6,6.6-3.8c2.6,0.7,4.2,3.1,4,5.7c2,3.1,15.3,11.3,39.5,17.6c24.2,6.4,39.7,5.8,43.1,4.1c1.1-2.3,3.7-3.6,6.3-3
					c2.9,0.8,4.6,3.7,3.8,6.6c0,0,0,0,0,0l-21.7,82.5C372.8,678.9,361.9,679.7,356.1,679.7z M282.2,646.1
					c2.2,3.2,15.4,11.2,39.4,17.5c24,6.3,39.4,5.8,43,4.1l18.6-70.8c-3.1,0.3-6,0.3-7.7,0.2c-9.7-0.2-22.1-2.2-34.9-5.6
					c-5.9-1.6-27.8-7.7-39.7-16.4L282.2,646.1z M386,586.1C386,586.1,386,586.1,386,586.1L386,586.1C386,586.1,386,586.1,386,586.1z
					 M303.7,564.4C303.7,564.4,303.7,564.4,303.7,564.4C303.7,564.4,303.7,564.4,303.7,564.4z"/>
			</g>
			<g>
				<path class="st1" d="M291.2,590.6c-1.6,6.1,17.9,16.6,43.5,23.3c25.6,6.7,47.7,7.3,49.3,1.1"/>
				<path class="st2" d="M370.6,624.7c-0.9,0-1.7,0-2.3,0c-9.7-0.2-22.1-2.2-34.9-5.6c-8.6-2.3-51.4-14.4-47.3-29.9l10.4,2.7
					c0.2-0.6,0-1.1,0-1.3c1.3,2.9,14.6,11.4,39.7,18c25.1,6.6,40.8,5.8,43.4,3.9c-0.1,0.1-0.5,0.5-0.6,1.1l10.4,2.7
					C387.3,623.9,376.4,624.7,370.6,624.7z"/>
			</g>
			<g>
				<path class="st1" d="M376.8,642.5c-1.6,6.1-23.7,5.6-49.3-1.1S282.4,624.2,284,618"/>
				<path class="st2" d="M363.3,652.2c-0.9,0-1.7,0-2.3,0c-9.7-0.2-22.1-2.2-34.9-5.6c-8.6-2.3-51.4-14.4-47.3-29.9l10.4,2.7
					c0.2-0.6,0-1.1,0-1.3c1.3,2.9,14.6,11.4,39.7,18c25.1,6.6,40.8,5.8,43.4,3.9c-0.1,0.1-0.5,0.5-0.6,1.1l10.4,2.7
					C380,651.4,369.2,652.2,363.3,652.2z"/>
			</g>
		</g>
		<g>
			<path class="st1" d="M530.7,254.4c-0.1-0.1-0.1-0.3-0.1-0.4c-4.6-12.7-16.7-20.4-29.4-20.2c-11.1-23.9-38.8-35.7-64-26.5
				c-21.5,7.8-34.6,28.6-33.7,50.3c-2.8,0.4-5.6,1.1-8.3,2.1c-21.3,7.7-32.3,31.3-24.5,52.6c-21.3,7.7-32.3,31.3-24.5,52.6
				c7.7,21.3,31.3,32.3,52.6,24.5c1.3-0.5,2.6-1,3.8-1.6l30.8-11.2l-19.4-53.3l56.9-41.3l50.9,26.3l11.6,31.8l15.6-5.7
				c1.3-0.3,2.6-0.7,3.9-1.2c21.3-7.7,32.3-31.3,24.5-52.6C570.3,261.2,550.2,250.4,530.7,254.4z"/>
			<path class="st2" d="M384.6,397.1c-19,0-36.8-11.7-43.7-30.5c-8.2-22.4,2.1-47.1,23-57.5c-5.5-22.7,6.8-46.4,29.2-54.6
				c1.6-0.6,3.2-1.1,4.8-1.5c0.9-22.9,15.4-43,37.3-51c13.4-4.9,28.1-4.5,41.2,1c12,5,21.9,14,28,25.4c12.7,1,23.9,8.6,29.5,20
				c20.8-2.1,41.1,10.3,48.4,30.3c8.8,24.1-3.7,50.7-27.7,59.5c-1.3,0.5-2.7,0.9-4.2,1.3l-15.4,5.6c-2.8,1-5.9-0.4-6.9-3.2
				L517.3,312l-46.1-23.8l-51,36.9l18,49.5c0.5,1.3,0.4,2.8-0.2,4.1s-1.7,2.3-3,2.8l-30.6,11.1c-1.3,0.6-2.7,1.2-4,1.7
				C395.2,396.2,389.9,397.1,384.6,397.1z M454.4,209.5c-5.2,0-10.4,0.9-15.5,2.7c-18.9,6.9-31,25-30.2,45c0.1,2.8-1.9,5.2-4.6,5.6
				c-2.5,0.3-4.9,1-7.2,1.8c-18.5,6.7-28,27.2-21.3,45.7c1,2.8-0.4,5.9-3.2,6.9c-8.9,3.3-16.1,9.8-20.1,18.4
				c-4,8.6-4.4,18.3-1.2,27.2c6.7,18.5,27.2,28,45.7,21.3c1.1-0.4,2.2-0.9,3.3-1.4c0.2-0.1,0.3-0.1,0.5-0.2l25.7-9.4L408.7,325
				c-0.8-2.3,0-4.8,1.9-6.2l56.9-41.3c1.7-1.2,3.8-1.4,5.6-0.4l50.9,26.3c1.2,0.6,2.1,1.7,2.6,3l9.7,26.8l10.5-3.8
				c0.2-0.1,0.3-0.1,0.5-0.2c1.2-0.3,2.3-0.6,3.4-1c18.5-6.7,28-27.2,21.3-45.7c-6-16.4-23.4-26.2-40.5-22.7c-2.6,0.5-5.3-1-6.2-3.5
				c-0.1-0.2-0.1-0.3-0.1-0.5c-3.7-10.1-13.5-16.7-24.2-16.6c-2.1,0-4.1-1.2-5-3.1C488.6,219.5,471.9,209.5,454.4,209.5z"/>
		</g>
		<g>
			<g>
				<polygon class="st1" points="464.2,277.3 507.5,396.3 408.4,404.8 379.7,325.8 				"/>
				<path class="st2" d="M408.4,410.2c-2.3,0-4.3-1.4-5.1-3.6l-28.8-79c-0.9-2.5,0.1-5.2,2.4-6.5l84.6-48.5c1.4-0.8,3-0.9,4.5-0.4
					c1.5,0.5,2.7,1.7,3.2,3.2l43.3,119c0.6,1.6,0.4,3.3-0.5,4.8c-0.9,1.4-2.4,2.3-4.1,2.5l-99.1,8.5
					C408.7,410.2,408.6,410.2,408.4,410.2z M386.3,328.2l25.8,70.9l88-7.6l-38.7-106.3L386.3,328.2z"/>
			</g>
			<g>
				<polygon class="st1" points="464.2,277.3 507.5,396.3 552.4,351.8 523.3,271.9 				"/>
				<path class="st2" d="M507.5,401.7c-0.4,0-0.8,0-1.2-0.1c-1.8-0.4-3.3-1.7-3.9-3.4l-43.3-119c-0.6-1.6-0.4-3.3,0.5-4.7
					s2.4-2.3,4.1-2.5l59.1-5.4c2.4-0.2,4.7,1.2,5.6,3.5l29.1,79.9c0.7,2,0.2,4.2-1.3,5.7l-44.8,44.5
					C510.3,401.1,508.9,401.7,507.5,401.7z M471.7,282l38,104.5l36.4-36.1l-26.5-72.7L471.7,282z"/>
			</g>
			<g>
				<g>
					<path class="st1" d="M488.6,414.5c2.5,1.2,3.7,0,2.8-2.6L474.3,365c-0.9-2.6-3.8-3.9-6.4-3l-46.9,17.1
						c-2.6,0.9-2.6,2.6-0.2,3.8l16.6,7.7c2.5,1.2,3.6,4.1,2.4,6.6l-14,30c-1.2,2.5-0.1,5.4,2.4,6.6l16.5,7.7
						c2.5,1.2,5.4,0.1,6.6-2.4l14-30c1.2-2.5,4.1-3.6,6.6-2.4L488.6,414.5z"/>
				</g>
				<path class="st2" d="M446.9,447.4c-1.5,0-3-0.3-4.4-1l-16.5-7.7c-5.2-2.4-7.4-8.6-5-13.8l13.8-29.6l-16.2-7.6
					c-3.2-1.5-5-4.2-4.9-7.1c0.1-3,2.2-5.4,5.5-6.7l46.9-17.1c5.4-2,11.3,0.8,13.3,6.2l17.1,46.9c1.2,3.3,0.6,6.5-1.5,8.5
					c-2.2,2-5.4,2.3-8.6,0.8l-16.2-7.6l-13.8,29.6C454.6,445.1,450.8,447.4,446.9,447.4z M431,429.1l15.7,7.3l13.8-29.6
					c2.4-5.2,8.6-7.4,13.8-5l9.3,4.3l-14.1-38.9l-38.9,14.1l9.3,4.3c2.5,1.2,4.4,3.2,5.4,5.8c0.9,2.6,0.8,5.4-0.3,7.9L431,429.1z"/>
			</g>
		</g>
		<g>
			<g>
				<circle class="st1" cx="368.9" cy="498" r="45.4"/>
				<path class="st2" d="M368.9,548.7c-28,0-50.8-22.8-50.8-50.8s22.8-50.8,50.8-50.8s50.8,22.8,50.8,50.8S396.9,548.7,368.9,548.7z
					 M368.9,458c-22,0-40,17.9-40,40s17.9,40,40,40s40-17.9,40-40S391,458,368.9,458z"/>
			</g>
			<g>
				<g>
					<path class="st1" d="M356.2,468.9l39.4,29l-39.4,29.2V468.9z"/>
					<path class="st2" d="M356.2,532.5c-0.8,0-1.7-0.2-2.4-0.6c-1.8-0.9-3-2.8-3-4.8v-58.2c0-2,1.1-3.9,3-4.8c1.8-0.9,4-0.7,5.6,0.5
						l39.4,29c1.4,1,2.2,2.6,2.2,4.3c0,1.7-0.8,3.3-2.2,4.3l-39.4,29.2C358.4,532.1,357.3,532.5,356.2,532.5z M361.6,479.6v36.8
						l24.9-18.4L361.6,479.6z"/>
				</g>
			</g>
		</g>
		<g>
			<g>
				<path class="st1" d="M439.2,592.2c-12.3-2.2-23.1-10.7-27.7-23.2"/>
				<g>
					<path class="st2" d="M439.2,597.6c-0.3,0-0.6,0-0.9-0.1c-14.6-2.6-26.8-12.8-31.8-26.7c-1-2.8,0.4-5.9,3.2-6.9
						c2.8-1,5.9,0.4,6.9,3.2c3.7,10.3,12.8,17.9,23.6,19.8c2.9,0.5,4.9,3.3,4.4,6.3C444,595.7,441.8,597.6,439.2,597.6z"/>
					<g>
						<polygon class="st2" points="431.1,567.7 402.2,543.4 395.7,580.6 						"/>
					</g>
				</g>
			</g>
			<g>
				<path class="st1" d="M479.4,544.2c4.3,11.7,2.3,25.4-6.3,35.6"/>
				<g>
					<path class="st2" d="M473.1,585.2c-1.2,0-2.5-0.4-3.5-1.3c-2.3-1.9-2.6-5.3-0.7-7.6c7-8.4,9.1-20,5.3-30.3
						c-1-2.8,0.4-5.9,3.2-6.9c2.8-1,5.9,0.4,6.9,3.2c5,13.9,2.3,29.6-7.2,40.9C476.2,584.5,474.7,585.2,473.1,585.2z"/>
					<g>
						<polygon class="st2" points="462.3,563.5 455.7,600.6 491.1,587.7 						"/>
					</g>
				</g>
			</g>
			<g>
				<path class="st1" d="M417.8,533.3c8-9.6,20.8-14.7,34-12.4"/>
				<g>
					<path class="st2" d="M417.8,538.7c-1.2,0-2.5-0.4-3.5-1.3c-2.3-1.9-2.6-5.3-0.7-7.6c9.5-11.3,24.5-16.8,39-14.2
						c2.9,0.5,4.9,3.3,4.4,6.3s-3.3,4.9-6.3,4.4c-10.8-1.9-21.9,2.1-28.9,10.5C420.8,538.1,419.3,538.7,417.8,538.7z"/>
					<g>
						<polygon class="st2" points="443,538.6 478.4,525.7 449.6,501.4 						"/>
					</g>
				</g>
			</g>
		</g>
		<g>
			<path class="st1" d="M625.3,467.7l-10.7-29.3l-20.3,7.4c-2.6-3.6-5.6-6.9-8.9-9.7l9.1-19.6l-28.3-13.2l-9.1,19.6
				c-4.3-0.7-8.7-0.9-13.1-0.6l-7.4-20.3l-29.3,10.7l7.4,20.3c-3.6,2.6-6.9,5.6-9.7,8.9l-19.6-9.1L472.3,461l19.6,9.1
				c-0.7,4.3-0.9,8.7-0.6,13.1l-20.3,7.4l10.7,29.3l20.3-7.4c2.6,3.6,5.6,6.9,8.9,9.7l-9.1,19.6L530,555l9.1-19.6
				c4.3,0.7,8.7,0.9,13.1,0.6l7.4,20.3l29.3-10.7l-7.4-20.3c3.6-2.6,6.9-5.6,9.7-8.9l19.6,9.1l13.2-28.3l-19.6-9.1
				c0.7-4.3,0.9-8.7,0.6-13.1L625.3,467.7z M560,511.8c-18,6.6-38-2.8-44.6-20.8c-6.6-18,2.8-38,20.8-44.6c18-6.6,38,2.8,44.6,20.8
				C587.4,485.3,578,505.3,560,511.8z"/>
			<path class="st2" d="M559.6,561.7c-2.2,0-4.3-1.4-5.1-3.6l-6-16.6c-2.1,0-4.1-0.1-6.2-0.3l-7.5,16c-0.6,1.3-1.7,2.3-3,2.8
				c-1.3,0.5-2.8,0.4-4.1-0.2l-28.3-13.2c-1.3-0.6-2.3-1.7-2.8-3c-0.5-1.3-0.4-2.8,0.2-4.1l7.5-16c-1.5-1.4-2.9-3-4.2-4.6l-16.6,6
				c-1.3,0.5-2.8,0.4-4.1-0.2s-2.3-1.7-2.8-3l-10.7-29.3c-1-2.8,0.4-5.9,3.2-6.9l16.6-6c0-2.1,0.1-4.1,0.3-6.2l-16-7.5
				c-1.3-0.6-2.3-1.7-2.8-3c-0.5-1.3-0.4-2.8,0.2-4.1l13.2-28.3c0.6-1.3,1.7-2.3,3-2.8c1.3-0.5,2.8-0.4,4.1,0.2l16,7.5
				c1.4-1.5,3-2.9,4.6-4.2l-6-16.6c-0.5-1.3-0.4-2.8,0.2-4.1s1.7-2.3,3-2.8l29.3-10.7c2.8-1,5.9,0.4,6.9,3.2l6,16.6
				c2.1,0,4.1,0.1,6.2,0.3l7.5-16c1.3-2.7,4.5-3.9,7.2-2.6l28.3,13.2c1.3,0.6,2.3,1.7,2.8,3c0.5,1.3,0.4,2.8-0.2,4.1l-7.5,16
				c1.5,1.4,2.9,3,4.2,4.6l16.6-6c2.8-1,5.9,0.4,6.9,3.2l10.7,29.3c0.5,1.3,0.4,2.8-0.2,4.1s-1.7,2.3-3,2.8l-16.6,6
				c0,2.1-0.1,4.1-0.3,6.2l16,7.5c2.7,1.3,3.9,4.5,2.6,7.2l-13.2,28.3c-0.6,1.3-1.7,2.3-3,2.8c-1.3,0.5-2.8,0.4-4.1-0.2l-16-7.5
				c-1.4,1.5-3,2.9-4.6,4.2l6,16.6c0.5,1.3,0.4,2.8-0.2,4.1s-1.7,2.3-3,2.8l-29.3,10.7C560.8,561.6,560.2,561.7,559.6,561.7z
				 M552.2,530.6c2.3,0,4.3,1.4,5.1,3.6l5.5,15.2l19.2-7l-5.5-15.2c-0.8-2.3,0-4.8,1.9-6.2c3.3-2.4,6.2-5.1,8.8-8
				c1.6-1.8,4.2-2.4,6.4-1.4l14.7,6.8l8.6-18.5l-14.7-6.8c-2.2-1-3.4-3.4-3-5.8c0.6-3.9,0.8-7.9,0.5-11.9c-0.2-2.4,1.3-4.6,3.5-5.5
				l15.2-5.5l-7-19.2l-15.2,5.5c-2.3,0.8-4.8,0-6.2-1.9c-2.4-3.3-5.1-6.2-8-8.8c-1.8-1.6-2.4-4.2-1.4-6.4l6.8-14.7l-18.5-8.6
				l-6.8,14.7c-1,2.2-3.4,3.4-5.8,3c-3.9-0.6-7.9-0.8-11.9-0.5c-2.4,0.2-4.6-1.3-5.5-3.5l-5.5-15.2l-19.2,7l5.5,15.2
				c0.8,2.3,0,4.8-1.9,6.2c-3.3,2.4-6.2,5.1-8.8,8c-1.6,1.8-4.2,2.4-6.4,1.4l-14.7-6.8l-8.6,18.5l14.7,6.8c2.2,1,3.4,3.4,3,5.8
				c-0.6,3.9-0.8,7.9-0.5,11.9c0.2,2.4-1.3,4.6-3.5,5.5l-15.2,5.5l7,19.2l15.2-5.5c2.3-0.8,4.8,0,6.2,1.9c2.4,3.3,5.1,6.2,8,8.8
				c1.8,1.6,2.4,4.2,1.4,6.4l-6.8,14.7l18.5,8.6l6.8-14.7c1-2.2,3.4-3.4,5.8-3c3.9,0.6,7.9,0.8,11.9,0.5
				C552,530.6,552.1,530.6,552.2,530.6z M548.2,519.3c-16.4,0-31.9-10.1-37.8-26.4c-7.6-20.8,3.2-43.9,24-51.5
				c20.8-7.6,43.9,3.2,51.5,24c3.7,10.1,3.2,21-1.4,30.7c-4.5,9.7-12.6,17.1-22.7,20.8C557.3,518.5,552.7,519.3,548.2,519.3z
				 M548.1,449.8c-3.3,0-6.7,0.6-10,1.8c-15.2,5.5-23.1,22.4-17.6,37.7c5.5,15.2,22.4,23.1,37.7,17.6c7.4-2.7,13.2-8.1,16.6-15.2
				c3.3-7.1,3.7-15.1,1-22.5C571.4,457.2,560.1,449.8,548.1,449.8z"/>
		</g>
		<g>
			<g>
				<path class="st1" d="M633.2,538.4c7.6-16.4,4.6-35-6.2-48l-18.5,39.7l-20.4-1.9l-14.6-14.4l18.5-39.7
					c-16.9,0.1-33.1,9.7-40.8,26.1c-6.6,14.1-5.2,29.8,2.1,42.2l-34.5,74c-5.9,12.7-0.4,27.8,12.3,33.7c12.7,5.9,27.8,0.4,33.7-12.3
					l34.5-74C613.8,561.6,626.7,552.5,633.2,538.4z"/>
				<path class="st2" d="M542,658c-4.4,0-8.9-1-13-2.9c-7.5-3.5-13.1-9.6-15.9-17.4s-2.4-16.1,1-23.5l33.3-71.5
					c-7.2-13.9-7.6-30.4-1-44.7c8.2-17.7,26.1-29.1,45.6-29.2c0,0,0,0,0,0c1.8,0,3.6,0.9,4.5,2.5c1,1.6,1.1,3.5,0.3,5.2l-16.9,36.2
					l10.5,10.3l14.6,1.4l16.9-36.2c0.8-1.7,2.4-2.8,4.2-3.1c1.8-0.2,3.7,0.5,4.8,1.9c12.5,15,15.2,36.1,7,53.7l0,0
					c-6.7,14.3-19.6,24.6-34.9,28l-33.3,71.5c-3.5,7.5-9.6,13.1-17.4,15.9C549.1,657.4,545.5,658,542,658z M583.1,480.6
					c-11.7,2.8-21.7,10.8-26.9,21.9c-5.6,11.9-4.9,25.8,1.9,37.2c0.9,1.5,1,3.4,0.3,5l-34.5,74c-2.3,4.8-2.5,10.3-0.7,15.3
					c1.8,5,5.5,9,10.3,11.3c4.8,2.3,10.3,2.5,15.3,0.7c5-1.8,9-5.5,11.3-10.3l34.5-74c0.8-1.6,2.3-2.8,4-3
					c13-2.1,24.1-10.5,29.7-22.5c5.2-11.1,4.8-23.9-0.5-34.7l-14.4,30.9c-1,2.1-3.1,3.3-5.4,3.1l-20.4-1.9c-1.2-0.1-2.4-0.7-3.3-1.5
					l-14.6-14.4c-1.6-1.6-2.1-4.1-1.1-6.1L583.1,480.6z M633.2,538.4L633.2,538.4L633.2,538.4z"/>
			</g>
			<circle class="st2" cx="541" cy="629.2" r="10.3"/>
		</g>
		<g>
			<g>
				<polygon class="st1" points="715.3,621.4 743.5,577.5 711.6,542.9 683.5,586.8 				"/>
				<path class="st2" d="M715.3,626.1c-1.3,0-2.6-0.5-3.5-1.5L680,590c-1.4-1.6-1.6-3.9-0.5-5.7l28.2-43.9c0.8-1.2,2.1-2,3.5-2.1
					c1.5-0.1,2.9,0.4,3.9,1.5l31.8,34.6c1.4,1.6,1.6,3.9,0.5,5.7L719.3,624c-0.8,1.2-2.1,2-3.5,2.1
					C715.6,626.1,715.4,626.1,715.3,626.1z M689.4,586.3l25.3,27.5l22.9-35.8l-25.3-27.5L689.4,586.3z"/>
			</g>
			<g>
				<polygon class="st1" points="683.5,586.8 711.6,542.9 672.4,539.7 647.1,580.9 				"/>
				<path class="st2" d="M683.5,591.5c-0.3,0-0.5,0-0.8-0.1l-36.3-5.9c-1.5-0.3-2.9-1.3-3.5-2.7s-0.6-3.1,0.3-4.4l25.2-41.2
					c0.9-1.5,2.6-2.4,4.4-2.2l39.3,3.2c1.6,0.1,3.1,1.1,3.8,2.6c0.7,1.5,0.6,3.2-0.3,4.6l-28.2,43.9
					C686.5,590.7,685,591.5,683.5,591.5z M654.8,577.4l26.4,4.3l22.3-34.8l-28.6-2.4L654.8,577.4z"/>
			</g>
			<g>
				<polygon class="st1" points="647.1,580.9 683.5,586.8 715.3,621.4 679,615.5 				"/>
				<path class="st2" d="M715.3,626.1c-0.3,0-0.5,0-0.8-0.1l-36.3-5.9c-1-0.2-2-0.7-2.7-1.5l-31.8-34.6c-1.4-1.5-1.6-3.6-0.7-5.4
					c0.9-1.8,2.9-2.7,4.9-2.4l36.3,5.9c1,0.2,2,0.7,2.7,1.5l31.8,34.6c1.4,1.5,1.6,3.6,0.7,5.4C718.6,625.2,717,626.1,715.3,626.1z
					 M681.3,611.1l21.3,3.5l-21.5-23.4l-21.3-3.5L681.3,611.1z"/>
			</g>
		</g>
		<g>
			<g>
				<polygon class="st1" points="533.3,221.7 618.8,251.1 641.5,185.1 628.8,145.6 566.9,124.3 				"/>
				<path class="st2" d="M618.8,256.5c-0.6,0-1.2-0.1-1.8-0.3l-85.5-29.4c-2.8-1-4.3-4-3.3-6.9l33.6-97.4c1-2.8,4-4.3,6.9-3.3
					l61.9,21.3c1.6,0.6,2.9,1.8,3.4,3.4l12.7,39.5c0.4,1.1,0.3,2.3,0,3.4l-22.7,66C623.1,255.1,621,256.5,618.8,256.5z M540.2,218.3
					l75.2,25.9l20.4-59.2l-11.4-35.2l-54.2-18.7L540.2,218.3z"/>
			</g>
			<g>
				<polygon class="st1" points="641.5,185.1 612.3,168.3 628.8,145.6 				"/>
				<path class="st2" d="M641.5,190.5c-0.9,0-1.8-0.2-2.7-0.7L609.6,173c-1.3-0.8-2.3-2.1-2.6-3.6c-0.3-1.5,0-3.1,0.9-4.3l16.5-22.7
					c1.2-1.6,3.2-2.5,5.2-2.2c2,0.3,3.7,1.7,4.3,3.7l12.7,39.5c0.7,2.1,0,4.4-1.7,5.9C644,190.1,642.8,190.5,641.5,190.5z
					 M620.2,166.6l11.9,6.9l-5.2-16.1L620.2,166.6z"/>
			</g>
			<g>
				<line class="st1" x1="574" y1="161.8" x2="594.7" y2="168.9"/>
				<path class="st2" d="M594.7,174.3c-0.6,0-1.2-0.1-1.8-0.3l-20.7-7.1c-2.8-1-4.3-4-3.3-6.9s4-4.3,6.9-3.3l20.7,7.1
					c2.8,1,4.3,4,3.3,6.9C599,172.9,596.9,174.3,594.7,174.3z"/>
			</g>
			<g>
				<line class="st1" x1="567" y1="182.2" x2="616.6" y2="199.3"/>
				<path class="st2" d="M616.6,204.7c-0.6,0-1.2-0.1-1.8-0.3l-49.6-17.1c-2.8-1-4.3-4-3.3-6.9s4-4.3,6.9-3.3l49.6,17.1
					c2.8,1,4.3,4,3.3,6.9C620.9,203.3,618.8,204.7,616.6,204.7z"/>
			</g>
			<g>
				<line class="st1" x1="559.5" y1="203.8" x2="609.2" y2="220.9"/>
				<path class="st2" d="M609.2,226.3c-0.6,0-1.2-0.1-1.8-0.3l-49.6-17.1c-2.8-1-4.3-4-3.3-6.9c1-2.8,4-4.3,6.9-3.3l49.6,17.1
					c2.8,1,4.3,4,3.3,6.9C613.5,224.9,611.4,226.3,609.2,226.3z"/>
			</g>
		</g>
		<g>
			<polyline class="st1" points="249.1,107.6 276.7,126.4 422.8,407 194.9,710.2 			"/>
			<path class="st2" d="M194.9,715.6c-1.1,0-2.3-0.4-3.2-1.1c-2.4-1.8-2.9-5.2-1.1-7.6l225.8-300.5L272.5,130.1l-26.4-18
				c-2.5-1.7-3.1-5-1.4-7.5c1.7-2.5,5-3.1,7.5-1.4l27.6,18.8c0.7,0.5,1.3,1.2,1.8,2l146.1,280.6c1,1.8,0.8,4.1-0.5,5.7L199.3,713.5
				C198.2,714.9,196.6,715.6,194.9,715.6z"/>
		</g>
		<g>
			<path class="st1" d="M160.7,744c-2.2-8.6-0.6-18.7,7.1-27.2l233.6-312l-168.9-324L65.1,375.1c-7.7,8.5-9.2,18.6-7.1,27.2
				L160.7,744z"/>
			<path class="st2" d="M160.7,749.4c-2.3,0-4.5-1.5-5.2-3.8L52.9,403.9c0-0.1,0-0.1-0.1-0.2c-2.8-11.2,0-22.7,7.9-31.7L227.8,78.1
				c1-1.7,2.8-2.8,4.8-2.7c2,0,3.8,1.1,4.7,2.9l168.9,324c1,1.8,0.8,4.1-0.5,5.7l-233.6,312c-0.1,0.1-0.2,0.3-0.3,0.4
				c-5.7,6.3-7.8,14.4-5.8,22.2c0.7,2.8-1,5.7-3.8,6.5C161.7,749.3,161.2,749.4,160.7,749.4z M63.2,400.9L159,719.7
				c1.3-2.2,2.8-4.3,4.5-6.3L395,404.3L232.3,92L69.8,377.8c-0.2,0.3-0.4,0.7-0.7,0.9C63.4,385,61.3,393.1,63.2,400.9z"/>
		</g>
		<g>
			<polygon class="st2" points="279.9,399.5 187.5,533.9 132.9,373 208.1,238.2 			"/>
			<g>
				<path class="st1" d="M173.1,367.8c-0.9-0.9-2-2-3.3-3.2c-1.1-1.1-1.9-1.9-2.4-2.3c-0.9-0.9-1.6-1.8-2-2.8
					c-0.8-2.3-0.8-5.2,0.1-8.8c0.6-2.3,1.3-4.3,2.2-5.9c1.9-3.3,4-3.8,6.1-1.5c1.3,1.4,3.6,3.6,6.9,6.4c3-7.3,5.5-13.6,7.4-18.8
					c0.7-1.9,1.4-3.4,2-4.5c1.6-2.8,3.4-3.4,5.1-1.8c0.8,0.7,1.4,1.7,1.9,2.8c1.3,3.2,1.2,7-0.4,11.5c-0.7,1.9-2.9,7.4-6.6,16.3
					l-0.9,2.1c2.8,2.3,5.3,4.3,7.7,6c3-7.6,5.4-13.7,7.1-18.4c0.6-1.6,1.1-2.9,1.6-3.6c1.5-2.6,3.2-3.1,5.1-1.6
					c1,0.7,1.8,1.9,2.5,3.4c1.3,3.2,1.2,7-0.5,11.5c-1.6,4.4-3.6,9.5-5.9,15.1c3.7,2,6.6,3.2,8.5,3.6c2.7,0.5,4.6,2.3,5.9,5.2
					c0.7,1.6,1.1,3.5,1.2,5.4c0.3,4.3-0.7,8.2-3,11.9c-0.7,1-1.6,2.2-2.9,3.6c-3.1,3.2-6.5,7-10.1,11.6c-2.4,3.1-4.2,3.1-5.4,0
					c-1.2-3.2-0.7-6.6,1.6-10.3c1.2-1.9,2.9-4.4,5.2-7.5c-3-1.5-5.9-3.2-8.9-5c-8.9,19.9-14.2,31.3-16.1,34.3
					c-1.8,2.9-3.6,3.3-5.3,1.4c-0.7-0.7-1.2-1.7-1.7-2.9c-1.2-3.3-1.1-6.8,0.1-10.6c0.2-0.7,0.8-1.8,1.6-3.5
					c2.9-5.9,6.8-14.4,11.8-25.5c-2.5-1.8-5.1-3.9-7.8-6.2c-6.9,15.9-11.4,25.6-13.6,29.3c-2.6,4.3-4.8,3.8-6.7-1.5
					c-1.4-3.9-0.9-8.3,1.6-13.1C165.3,384.9,168.7,377.6,173.1,367.8z M189.5,445.9c1.5-2.4,3.3-2.8,5.4-1c3.4,2.9,7.4,2.3,12.1-1.8
					c3.6-3.1,7.8-8.5,12.8-16.2c4.1-6.3,7.4-6.3,9.9,0c2.4,6,1.4,12.4-3,18.9c-8,12-15.4,19.2-22.1,21.8c-4.9,1.9-9.1,1.1-12.8-2.3
					c-1.8-1.7-3.1-3.6-3.9-5.7c-0.9-2.5-1.1-5.2-0.6-8.1C187.9,449.2,188.6,447.4,189.5,445.9z M194.8,308.3c1.4-2.4,4.6-4,9.7-4.6
					c4.4-0.6,7.1,0.3,8.2,2.7c0.7,1.7,0.9,3.9,0.5,6.6c-0.3,2.2-0.9,4-1.8,5.4c-1.2,2-2.7,2.6-4.5,1.8c-3.2-1.6-6.7-2.4-10.3-2.5
					c-1.2,0-2.1-0.7-2.6-2C193.1,313.3,193.4,310.8,194.8,308.3z M198,286.8c1.5-2.6,4.5-4.5,9.1-5.6c4.3-1,7-0.3,8.2,2.3
					c0.8,1.8,1,4,0.6,6.6c-0.3,1.9-0.9,3.5-1.6,4.8c-1.1,1.9-2.6,2.6-4.4,1.9c-2.9-1.1-6.2-1.4-10-1.1c-1.3,0.1-2.3-0.4-2.8-1.6
					c-0.3-0.8-0.5-2-0.4-3.4C196.9,289.3,197.3,288,198,286.8z"/>
			</g>
		</g>
	</g>
</g>
<rect class="st3" width="800" height="800"/>
</svg>
