<svg xmlns="http://www.w3.org/2000/svg" viewBox="0 0 665.51 333.17"><defs><style>.cls-1{fill:#040000;}</style></defs><title>アートボード 30</title><g id="レイヤー_7" data-name="レイヤー 7"><path class="cls-1" d="M153.57,150.13,194.24,79h-47V47.11H197.3V27.25H147.21V.35H126.65v26.9H79.33V47.11h47.32V79H83.18v4A15.83,15.83,0,0,0,99,98.9h57.23L138.65,130l-9.48-12.81H104.3l23.41,32.14-.21.37L67.13,210.49H96.66L139.9,166l25.28,34.7a23.73,23.73,0,0,0,19.17,9.76h13.88ZM23.83,210.49h20.3v-97l9.89-4A18.15,18.15,0,0,0,65.39,92.67V83.06l-21.26,8.3V56.91H67.31V36.8H44.13V.35H23.83V36.8H0V56.91H23.83v42.5L0,108.72v22.12l23.83-9.55Zm391.43-21.76V162.15a21.75,21.75,0,0,0-21.75-21.75H263.34v70.09H393.51A21.75,21.75,0,0,0,415.26,188.73Zm-133.13,5V183.19H370v-15.5H282.13V156.87h105.1a9.24,9.24,0,0,1,9.24,9.24v18.41a9.24,9.24,0,0,1-9.24,9.24Zm150.68-78.32H348.09v-9.71h42.36V90.54H348.09V78.42h61.19V53.73h20.46V38.08H409.28V27.9c0-7.87-6-14.25-13.38-14.25H348.09V0h-17.6V13.65H271.18V29.09h59.31v9H248.86V53.73h81.63v8.74H271.18v16h59.31V90.54h-42.1v15.19h42.1v9.71h-84.7v16.68h187ZM348.48,29.29h37.16A5.68,5.68,0,0,1,391.32,35v3.26H348.48Zm0,24.51h42.84v8.69H348.48Zm317-37.44L654.85.56H631l10.66,15.8ZM494,210.7h20.29V73.22h20.92V53.1H514.27V1H494V53.1h-23.7V73.22H494ZM650,49.17H612.76V40.52h48.62V22.43H612.76V1H594V22.43H544.16V40.52H594v8.65H546.57v72.62H664.24V63.37A14.2,14.2,0,0,0,650,49.17ZM594,105.6H563.12V94H594Zm0-29.16H563.12V65.37H594Zm53,29.16H612.76V94H647Zm0-29.16H612.76V65.37h28.52A5.67,5.67,0,0,1,647,71ZM606.89,201.33l-22.31-28.26H562.81l22.3,28.26Zm35.93-71.89H621.57v8.83h-92.1v19.44h92.1v38.86A14.13,14.13,0,0,0,635.7,210.7h7.12v-53h21.42V138.27H642.82ZM559.94,256.52l-29.13,33.56,4.48-33.56H519.65l-9.83,74.57h15.69l2.31-17.78,9.81-11,16.13,28.8h17.53l-23.36-40.36,30.45-34.21Zm71.13,37c0,.2-.09.56-.15,1.07q-1.78,13.54-4.64,18.23a15.3,15.3,0,0,1-5.76,5.53,16.74,16.74,0,0,1-8,1.86q-6.48,0-9.86-3.54t-3.39-10.42c0-1.49,0-2.87.1-4.12s.17-2.43.31-3.52l5.65-42.12H589.66l-4.48,34.07q-.82,6.42-1.25,10.8t-.43,6.22q0,12.83,6.92,19.2t21,6.36a42.2,42.2,0,0,0,15.63-2.59,26.63,26.63,0,0,0,11-8.05,30,30,0,0,0,4.81-8.79q1.75-5,3.13-15.3l5.5-41.92H636.06Zm-167.38-37-38.6,74.57h17.42l8-16h28.37l3.16,16h16.55l-17.92-74.57Zm-7.07,46.3,13.86-30,5.54,30ZM98.23,331.09h15.64l9.78-74.57H108Zm208.55-76.35a44.06,44.06,0,0,0-17.6,3.49,39.73,39.73,0,0,0-14,10.06,44.11,44.11,0,0,0-10.95,29q0,16.25,10.09,26t26.84,9.78a44,44,0,0,0,18.08-3.69,40.91,40.91,0,0,0,14.46-10.82,39.89,39.89,0,0,0,7.47-13A46.77,46.77,0,0,0,343.71,290q0-15.93-10.09-25.59T306.78,254.74Zm13.57,56.53a23.64,23.64,0,0,1-18.41,8.26q-9.93,0-15.86-6.14t-5.94-16.53q0-12.33,7.34-20.45a23.76,23.76,0,0,1,18.44-8.12q10,0,15.89,6.08t5.9,16.43Q327.71,303,320.35,311.27ZM152.27,269.66a10.45,10.45,0,0,1,7.16-2.5,12.31,12.31,0,0,1,6.72,1.84,14.25,14.25,0,0,1,4.89,5.55l8-10.34a22.17,22.17,0,0,0-8.4-7.1,25.88,25.88,0,0,0-11.31-2.37q-10.54,0-17.47,6.44a22.14,22.14,0,0,0-5.73,23.28,18,18,0,0,0,3.49,5.93q3.15,3.51,12.32,8.51l2.4,1.32a14.08,14.08,0,0,1,4.94,4.23,9.51,9.51,0,0,1,1.63,5.45,9.78,9.78,0,0,1-2.83,7.43c-1.88,1.81-4.49,2.7-7.82,2.7a14.85,14.85,0,0,1-8.15-2.19,18.93,18.93,0,0,1-6.11-6.77l-8.45,10.65a28.42,28.42,0,0,0,9.88,8.55,27.61,27.61,0,0,0,12.63,2.8q11.66,0,18.72-6.41t7.05-16.86q0-7.49-3-12.23t-11.41-9.67c-.61-.38-1.51-.9-2.7-1.58q-9.27-5.25-9.27-10.29A8.13,8.13,0,0,1,152.27,269.66ZM402.72,285.5H372.26l3.87-29H360.49l-9.83,74.57h15.69l4.28-32.35H401l-4.27,32.35h15.63l9.78-74.57H406.59ZM53.85,305.11H71.52A21.36,21.36,0,0,1,64,315.73a19.91,19.91,0,0,1-12.1,3.8q-10,0-16-6.12t-6-16.45q0-12.52,7.31-20.75A23.6,23.6,0,0,1,55.63,268a21.35,21.35,0,0,1,11,2.9,23.33,23.33,0,0,1,8.2,8.36L87,270.58a30.83,30.83,0,0,0-12.53-11.82q-7.74-3.92-18.59-3.92a45.08,45.08,0,0,0-17.47,3.28,35.24,35.24,0,0,0-13.29,9.55,45.19,45.19,0,0,0-11,29.49q0,16.41,10.06,26.16t27,9.75q17.06,0,27.09-10.72t11.21-30.28H55.53Zm184-19.61H207.43l3.88-29H195.67l-9.83,74.57h15.69l4.27-32.35h30.36l-4.28,32.35h15.64l9.78-74.57H241.76Z"/></g></svg>